Coordinates
version=1
nRows=13
nColumns=40
inDegrees=yes

Units are S.I. units (second, meters, Newtons, ...)
Angles are in degrees.

endheader
time	pelvis_tilt	pelvis_list	pelvis_rotation	pelvis_tx	pelvis_ty	pelvis_tz	hip_flexion_r	hip_adduction_r	hip_rotation_r	knee_angle_r	knee_angle_r_beta	ankle_angle_r	subtalar_angle_r	mtp_angle_r	hip_flexion_l	hip_adduction_l	hip_rotation_l	knee_angle_l	knee_angle_l_beta	ankle_angle_l	subtalar_angle_l	mtp_angle_l	lumbar_extension	lumbar_bending	lumbar_rotation	arm_flex_r	arm_add_r	arm_rot_r	elbow_flex_r	pro_sup_r	wrist_flex_r	wrist_dev_r	arm_flex_l	arm_add_l	arm_rot_l	elbow_flex_l	pro_sup_l	wrist_flex_l	wrist_dev_l
     42.05500000	     -3.72988192	     -3.99394024	     -3.51150588	      0.96713773	      0.93472824	      0.42094885	     32.41196349	     -3.34886084	     -4.08419262	     62.86292929	     62.86292929	      0.58005575	    -14.82594759	     -0.14411925	      8.41145712	     -3.48879547	     -7.01726437	     18.28152764	     18.28152764	     15.85838577	     -9.86323306	      1.78266069	     -8.84400247	      6.81407015	      3.50201088	      1.58134694	    -12.56590354	      0.30719610	     29.18546312	     46.50373450	      0.00000000	      0.00000000	     16.37103499	    -13.91352594	     -1.37557892	     64.95104090	     46.48316782	      0.00000000	      0.00000000
     42.06685714	     -3.90414416	     -4.04317819	     -3.58547438	      0.96657613	      0.93457639	      0.42116443	     33.15698057	     -3.18341789	     -4.27261636	     60.78158902	     60.78158902	      0.74997960	    -14.46381981	      0.01464021	      7.91169225	     -3.51472604	     -7.10330846	     17.88971734	     17.88971734	     16.05477219	     -9.73528829	      1.69115680	     -8.67724487	      6.93796677	      3.01266418	      0.03945994	    -12.56371891	      0.36147029	     28.56823830	     46.51067015	      0.00000000	      0.00000000	     17.27017606	    -14.57614743	     -1.77952609	     65.64002497	     46.53081054	      0.00000000	      0.00000000
     42.07871429	     -3.79011815	     -4.20487048	     -3.73638646	      0.96637377	      0.93487805	      0.42156724	     33.34838346	     -2.84578954	     -4.43501091	     58.26239016	     58.26239016	      0.68791385	    -14.17439319	     -0.36974916	      6.69953617	     -3.61655474	     -7.33109213	     16.79579662	     16.79579662	     15.82495699	     -9.43143769	      0.62887782	     -8.97312146	      7.11594747	      2.70245961	     -1.38675795	    -12.68226955	      0.90455836	     27.62474168	     46.48056493	      0.00000000	      0.00000000	     17.07500336	    -14.79061914	     -3.43169493	     69.71034863	     46.75646987	      0.00000000	      0.00000000
     42.09057143	     -3.82825516	     -4.29036926	     -3.85720597	      0.96602733	      0.93472316	      0.42202950	     33.63486006	     -2.60199722	     -4.63523115	     55.58192969	     55.58192969	      0.82261669	    -13.70605888	     -0.24606503	      5.87757254	     -3.66233049	     -7.46495938	     16.12377893	     16.12377893	     16.00427474	     -9.18963380	      0.49589083	     -9.01806601	      7.25336319	      2.71206452	     -3.07601622	    -12.81862779	      1.08193470	     27.00055275	     46.47440129	      0.00000000	      0.00000000	     18.00551524	    -14.98086567	     -3.95506882	     70.90470288	     46.83025564	      0.00000000	      0.00000000
     42.10242857	     -3.86157399	     -4.33823621	     -3.97626286	      0.96571626	      0.93438694	      0.42259391	     33.78377473	     -2.38183192	     -4.83589333	     52.67007131	     52.67007131	      0.96806133	    -13.12104770	     -0.27575631	      5.09934039	     -3.69075327	     -7.67072311	     15.54266680	     15.54266680	     16.17083110	     -8.86873267	      0.20407170	     -9.08853585	      7.32473991	      2.70764518	     -4.84206028	    -12.93754797	      1.20934999	     26.76212998	     46.45266718	      0.00000000	      0.00000000	     18.77683357	    -15.21946883	     -4.59499005	     72.60393822	     46.92303156	      0.00000000	      0.00000000
     42.11428571	     -3.96623107	     -4.39634304	     -4.07304671	      0.96543556	      0.93380041	      0.42323301	     33.84578055	     -2.13622579	     -5.09009574	     49.49400254	     49.49400254	      1.01522790	    -12.47374375	     -0.71390556	      4.46527861	     -3.76215450	     -7.91028645	     15.08400798	     15.08400798	     16.28785228	     -8.49557762	     -0.33428451	     -9.08906666	      7.42022649	      2.43552632	     -6.64435448	    -13.11312431	      1.31535898	     27.24745797	     46.39522918	      0.00000000	      0.00000000	     19.14870251	    -15.56331341	     -5.46230021	     74.74624985	     47.05167315	      0.00000000	      0.00000000
     42.12614286	     -3.99373422	     -4.44336761	     -4.17629802	      0.96525809	      0.93312949	      0.42403618	     33.66849224	     -1.90395801	     -5.44927321	     46.11741451	     46.11741451	      1.05027184	    -11.68231746	     -1.24176129	      3.79343925	     -3.82735895	     -8.15425168	     14.73625067	     14.73625067	     16.51195873	     -8.19693698	     -0.76523800	     -9.16540280	      7.47551708	      2.31209909	     -8.38719060	    -13.27404434	      1.44504958	     27.69405891	     46.33711228	      0.00000000	      0.00000000	     19.71902445	    -15.88272993	     -6.20678543	     76.49985209	     47.17497323	      0.00000000	      0.00000000
     42.13800000	     -4.04467335	     -4.48107494	     -4.26289921	      0.96520986	      0.93234684	      0.42490205	     33.36697743	     -1.65812646	     -5.86690443	     42.59434010	     42.59434010	      1.33299605	    -10.57663755	     -1.09404247	      3.16684411	     -3.87670588	     -8.29647197	     14.44136660	     14.44136660	     16.80882833	     -7.99744775	     -0.92395106	     -9.14427016	      7.53065229	      2.32118416	     -9.89186894	    -13.34378478	      1.45860404	     27.40412692	     46.33167309	      0.00000000	      0.00000000	     20.50664561	    -16.11509417	     -6.56571910	     77.56702401	     47.23202295	      0.00000000	      0.00000000
     42.14985714	     -4.07130070	     -4.46667410	     -4.35983536	      0.96525483	      0.93143910	      0.42592045	     32.91757231	     -1.43592295	     -6.31820014	     39.00098324	     39.00098324	      1.62301936	     -9.24990671	     -1.00772420	      2.53477630	     -3.89342609	     -8.52778043	     14.20171084	     14.20171084	     17.11607173	     -7.63798477	     -1.14245995	     -9.20651022	      7.51261600	      2.35809081	    -11.42368305	    -13.36688042	      1.36186237	     27.39726399	     46.32109039	      0.00000000	      0.00000000	     21.18817736	    -16.31447131	     -6.99227998	     78.93065321	     47.30030194	      0.00000000	      0.00000000
     42.16171429	     -4.11141262	     -4.43317156	     -4.43727861	      0.96550705	      0.93033474	      0.42702703	     32.34094641	     -1.22473595	     -6.90421554	     35.36019289	     35.36019289	      1.82562951	     -7.76572400	     -1.00115384	      1.93448106	     -3.92290836	     -8.89948516	     14.02176754	     14.02176754	     17.50671837	     -7.06162898	     -1.42612339	     -9.22278880	      7.47358570	      2.30633236	    -13.01570770	    -13.37459627	      1.00094871	     27.99264359	     46.29970051	      0.00000000	      0.00000000	     21.60529533	    -16.51724134	     -7.57949731	     80.64316050	     47.39627079	      0.00000000	      0.00000000
     42.17357143	     -4.20289727	     -4.43336704	     -4.49605803	      0.96586467	      0.92907604	      0.42833598	     31.69278918	     -0.88071824	     -7.43698279	     31.74696779	     31.74696779	      2.02773922	     -6.51793210	     -0.49405955	      1.43790355	     -3.97317232	     -8.97347691	     13.93550230	     13.93550230	     17.84549716	     -6.97640088	     -1.57984842	     -9.08208110	      7.49131831	      2.21746908	    -14.16015823	    -13.28414627	      0.92440870	     27.82969004	     46.29979938	      0.00000000	      0.00000000	     22.21381481	    -16.81214106	     -7.86424883	     81.38780360	     47.43813922	      0.00000000	      0.00000000
     42.18542857	     -4.08331617	     -4.41814695	     -4.51729166	      0.96661166	      0.92796761	      0.42969931	     30.73967406	     -0.62941527	     -8.24400273	     28.36584702	     28.36584702	      2.31846481	     -4.77258360	      0.09181043	      0.65262276	     -4.01423310	     -9.19565812	     13.80072572	     13.80072572	     18.27832322	     -6.54349110	     -1.77362023	     -9.23582094	      7.43540477	      2.29075564	    -15.42571444	    -13.25338239	      0.68292892	     27.87241220	     46.30076724	      0.00000000	      0.00000000	     22.69318655	    -16.86121665	     -8.20435095	     82.56240812	     47.49542009	      0.00000000	      0.00000000
     42.19728571	     -4.05995085	     -4.31101907	     -4.57402302	      0.96750284	      0.92657418	      0.43126807	     29.94016319	     -0.45410864	     -9.14186082	     25.43936200	     25.43936200	      2.69357669	     -3.01289297	      1.21231872	     -0.00778607	     -4.00803300	     -9.66111047	     13.71887050	     13.71887050	     18.80175436	     -5.80994667	     -1.86902647	     -9.19987371	      7.27204940	      2.28137342	    -16.59133528	    -13.05902662	      0.04791896	     28.41046946	     46.30589542	      0.00000000	      0.00000000	     22.97447426	    -16.97178017	     -8.71215702	     83.94311226	     47.58083462	      0.00000000	      0.00000000
